<svg xmlns="http://www.w3.org/2000/svg"
     width="32"
     height="32"
     viewBox="0 0 32 32"
     fill="white">

  <path d="M16.04 2.003c-7.732 0-14.02 6.287-14.02 14.02 0 2.48.65 4.9 1.89 7.03L2 30l7.15-1.85c2.06 1.13 4.37 1.72 6.89 1.72 7.73 0 14.02-6.29 14.02-14.02 0-7.73-6.29-14.02-14.02-14.02zm0 25.55c-2.24 0-4.43-.6-6.32-1.73l-.45-.27-4.24 1.1 1.13-4.13-.3-.47c-1.2-1.93-1.84-4.15-1.84-6.42 0-6.63 5.4-12.03 12.02-12.03 6.63 0 12.03 5.4 12.03 12.03 0 6.62-5.4 12.02-12.03 12.02zm6.58-8.99c-.36-.18-2.12-1.04-2.45-1.16-.33-.12-.57-.18-.8.18-.24.36-.92 1.16-1.13 1.4-.2.24-.41.27-.77.09-.36-.18-1.5-.55-2.86-1.76-1.06-.94-1.77-2.1-1.98-2.46-.2-.36-.02-.55.16-.73.16-.16.36-.41.55-.61.18-.2.24-.36.36-.6.12-.24.06-.45-.03-.63-.09-.18-.8-1.92-1.1-2.63-.29-.7-.59-.6-.8-.6h-.69c-.24 0-.63.09-.96.45-.33.36-1.26 1.23-1.26 3 0 1.77 1.29 3.48 1.47 3.72.18.24 2.54 3.89 6.15 5.45.86.37 1.53.59 2.05.75.86.27 1.64.23 2.26.14.69-.1 2.12-.87 2.42-1.71.3-.84.3-1.56.21-1.71-.09-.15-.33-.24-.69-.42z"/>
</svg>
